<svg width="200" height="200" viewBox="0 0 200 200" fill="none" xmlns="http://www.w3.org/2000/svg">
<path d="M187.212 105.842C184.752 72.0984 160.232 44.9654 149.241 34.2045C150.778 30.4381 151.701 25.98 150.624 21.6756C149.087 15.5265 144.398 11.6833 138.096 11.299C133.714 11.1453 130.255 12.8363 127.796 14.2198C126.873 13.6049 125.567 12.6826 125.029 12.2982L127.796 10.6072C114.729 1.9216 97.204 0.076864 96.6659 0C95.9741 0.076864 80.3708 1.84473 65.6897 13.0669C63.4607 12.0676 61.001 11.0684 57.4653 11.2221C51.1625 11.6065 46.4738 15.4497 44.9365 21.5988C44.0141 25.2882 44.5522 29.0546 45.6283 32.3597C35.0979 44.5042 30.7166 58.7241 29.8711 63.259C24.0295 72.4058 20.8012 82.7825 20.6475 83.2437L20.4937 83.628V84.0892C20.4937 84.5504 20.1094 95.0038 23.0302 105.073C19.0333 108.762 15.8819 113.221 13.9603 118.601C16.1894 123.597 18.1878 131.437 17.5729 133.359C17.4192 133.743 16.8043 134.358 16.1894 134.896C12.2693 138.509 9.11787 143.044 16.2662 155.111C14.4215 159.877 13.8834 168.332 21.7236 175.942C25.4899 179.554 30.3323 181.476 36.174 181.476C43.3992 181.476 48.6259 179.324 55.39 175.25C52.7766 173.789 51.7774 172.79 51.7774 172.79C54.1601 172.329 56.7735 171.33 58.8488 169.408C61.6928 166.718 62.6152 163.643 63.4607 160.953C64.1525 158.647 64.7674 156.649 66.5352 154.65C67.1502 153.959 68.1494 153.267 69.2255 152.421C71.4545 150.807 74.0679 148.962 75.9895 145.58C76.7582 145.503 78.2186 145.119 78.8335 144.965L77.3731 150.884C89.4407 147.733 96.2047 142.121 96.2047 142.121C96.2047 142.121 102.277 149.116 105.966 159.185C105.275 160.415 103.968 162.644 102.508 163.874C100.432 165.642 98.895 169.254 98.4338 173.021C94.5906 176.326 89.2101 190.085 101.124 198.693C101.124 198.616 102.584 192.852 107.811 188.317L108.887 188.624C109.81 195.311 115.805 200 115.805 200C119.956 193.62 122.8 190.853 122.8 190.853C123.338 190.93 124.029 191.084 124.875 191.161C124.875 191.161 126.566 196.772 130.794 200C130.794 200 135.098 197.387 137.634 192.006C137.865 192.006 138.172 192.006 138.403 192.006C139.325 192.006 140.786 191.776 140.786 191.776C141.478 192.775 143.169 195.619 143.784 199.923C147.78 198.232 151.854 194.85 153.315 190.623C153.315 190.623 155.851 193.543 156.159 198.616C163.384 194.696 168.611 186.626 163.845 176.018C163.845 175.711 163.845 175.404 163.845 174.942C163.768 171.868 162 169.101 159.464 167.794C160.617 165.796 161.693 163.643 162.692 161.414L164.229 164.489C171.839 154.343 175.067 142.736 173.837 132.129C178.757 122.444 181.216 110.069 182.446 102.844L187.212 105.842Z" fill="white"/>
<path d="M183.522 100C178.219 69.4081 154.391 43.4281 145.398 34.7425C145.551 34.3582 145.782 33.9739 145.936 33.5895C147.55 29.8232 148.319 25.9031 147.396 22.4443C146.474 18.6779 144.168 15.9108 140.555 15.0653C139.249 14.7579 134.329 13.4512 127.642 18.1399C124.798 15.9877 121.8 13.9124 118.572 11.9908L121.339 10.6072C109.272 4.38124 96.666 3.30515 96.666 3.30515C96.666 3.30515 80.5245 4.99615 65.9204 16.9869C63.5376 15.6802 59.2332 13.6818 54.2371 15.2959C51.0856 16.2952 49.0103 18.9854 48.1648 22.4443C47.3193 25.7494 47.9342 29.362 49.3946 32.9746C37.7882 45.3497 33.1763 61.03 32.7151 64.4888C26.8735 73.3282 23.6452 83.7817 23.4915 84.166C23.4915 84.6272 23.0303 96.0799 26.4892 106.149C22.7228 109.224 19.3408 113.297 17.1886 118.524C17.1886 118.524 21.8773 129.977 20.3401 134.358C18.8028 138.739 9.42537 138.739 19.6483 154.727C19.6483 154.727 14.1141 164.105 23.7221 173.405C33.3301 182.706 48.626 175.25 48.626 175.25C48.626 175.25 45.5514 173.713 44.6291 169.485C44.6291 169.485 52.3923 170.945 56.7736 166.795C61.1548 162.644 59.8481 157.341 64.2294 152.267C66.689 149.424 71.5314 147.963 74.068 142.352C79.4484 141.814 83.061 140.43 83.061 140.43L81.6775 145.888C88.0572 143.889 92.669 140.892 96.8197 137.586C101.047 143.121 105.736 149.5 109.118 159.493C109.118 159.493 107.119 163.874 104.429 166.18C102.815 167.563 101.508 170.869 101.432 174.327C101.432 174.327 93.1302 182.398 99.8174 193.313C99.8174 193.313 102.431 187.164 107.888 185.088L111.501 185.857C111.501 185.857 111.654 190.776 115.19 195.234C118.495 189.931 121.57 187.241 121.57 187.241C121.57 187.241 123.261 187.702 126.95 188.086C126.95 188.086 128.257 192.852 130.87 196.157C130.87 196.157 134.483 193.39 136.097 188.624C136.097 188.624 139.556 188.932 141.939 188.009C141.939 188.009 145.013 191.084 145.936 195.158C145.936 195.158 150.624 192.929 151.163 185.78C151.163 185.78 156.62 187.087 158.234 193.39C158.234 193.39 166.228 188.086 160.617 176.787C160.617 176.787 160.617 176.095 160.617 175.096C160.54 173.021 159.31 171.253 157.542 170.638C156.85 170.407 156.005 169.562 155.313 168.486C158.003 164.489 160.309 159.108 162.385 154.497L164.306 158.34C166.228 155.265 172.3 144.965 170.532 131.822C177.143 119.139 179.679 101.614 179.756 97.9247L183.522 100Z" fill="#1A428A"/>
<path d="M23.7988 147.579C23.7988 147.579 26.7965 146.118 30.0248 148.04C30.0248 148.04 31.2546 154.266 36.7888 158.955C36.8657 158.878 25.6436 158.109 23.7988 147.579ZM30.1785 161.876C24.1831 160.492 25.4898 165.181 25.4898 165.181C29.6405 174.558 39.3253 172.329 39.3253 172.329C32.5613 168.178 30.1785 161.876 30.1785 161.876ZM34.2523 135.819C34.2523 135.819 30.6397 133.666 28.8718 134.973C27.104 136.28 28.795 140.046 28.795 140.046C33.4837 146.426 41.1701 146.656 41.1701 146.656C35.9433 142.045 34.2523 135.819 34.2523 135.819ZM44.7058 128.286C44.7058 128.286 42.0156 126.057 39.1716 126.518C36.3277 126.979 37.4037 129.593 37.4037 129.593C42.7842 137.586 49.8557 137.894 49.8557 137.894C46.5506 133.897 44.7058 128.286 44.7058 128.286ZM56.0817 122.905C56.0817 122.905 48.7027 119.523 50.0094 125.519C50.0094 125.519 55.4668 130.976 62.7689 132.744C62.7689 132.821 59.0794 125.365 56.0817 122.905ZM108.503 174.02C107.504 174.404 101.355 177.248 100.893 184.704C100.893 184.704 102.892 181.322 107.734 179.862C107.888 177.402 108.195 175.327 108.503 174.02ZM122.338 179.708C122.262 178.862 121.877 175.634 120.647 174.866C119.187 174.02 115.19 178.171 116.727 186.549C118.803 183.321 121.647 180.4 122.338 179.708ZM132.331 176.172C130.717 176.326 128.949 180.707 128.949 180.707L131.408 188.624C134.022 185.088 134.79 180.707 134.79 180.707C134.79 180.707 133.945 176.018 132.331 176.172ZM144.091 177.479C142.016 178.401 141.401 181.553 141.401 181.553C145.167 184.32 146.627 187.856 146.627 187.856C147.627 183.013 146.166 176.557 144.091 177.479ZM154.391 181.783C154.391 181.783 157.773 183.244 158.695 186.779C158.695 186.779 160.847 178.401 153.468 176.326C153.468 176.249 154.468 178.632 154.391 181.783ZM92.4383 103.075C94.1293 102.921 94.3599 102.152 94.3599 102.152C95.7435 102.152 96.4353 102.152 97.742 102.152C99.1255 102.152 99.8173 102.152 101.124 102.152C101.124 102.152 101.355 102.921 103.046 103.075C104.737 103.228 105.813 100.307 103.737 96.4643C103.046 98.1553 102.046 100.615 102.046 100.615C100.355 100.615 99.433 100.692 97.742 100.692C96.051 100.692 95.1286 100.615 93.4376 100.615C93.4376 100.615 92.4383 98.1553 91.7466 96.4643C89.6712 100.231 90.8242 103.151 92.4383 103.075ZM75.9126 66.103C75.9126 66.103 77.8342 61.7986 81.2931 57.9554L80.9087 57.7248C76.3738 53.7279 78.1416 49.1929 78.1416 49.1929C76.835 48.2706 75.4514 47.3482 75.4514 47.3482C78.3722 45.6572 82.1386 45.8109 82.1386 45.8109C82.1386 45.8109 84.2908 46.9639 86.1355 47.8863C92.1309 37.8939 102.2 21.5219 103.276 19.754C102.661 19.8309 102.2 19.9078 101.893 19.9846C99.7404 20.907 97.8188 22.6749 97.8188 22.6749C97.8188 22.6749 95.8972 20.907 93.745 19.9846C93.2838 19.754 92.3615 19.6772 91.0548 19.6772C75.2208 41.5834 60.2323 69.8694 60.2323 69.8694C62.3845 82.2444 69.9172 90.5458 79.5252 95.5419C75.7589 89.6234 75.0671 84.0892 75.0671 84.0892C77.6805 86.472 80.8319 87.3943 80.8319 87.3943C80.8319 87.3943 75.9126 76.7102 75.9126 66.103ZM106.12 78.0169C102.661 77.1714 97.8188 77.1714 97.8188 77.1714C97.8188 77.1714 97.8188 77.1714 97.742 77.1714C97.127 77.1714 92.7458 77.1714 89.5175 78.0169C88.4414 78.2475 87.8265 79.4773 88.0571 80.6303C88.5183 82.7056 89.4406 84.7041 90.7473 86.6257C90.9011 85.0116 91.2085 81.0146 91.8234 78.7856L91.9772 78.3244L93.8219 80.3997C94.4368 80.3228 96.1278 80.1691 97.8188 80.1691C99.5098 80.1691 101.201 80.3228 101.816 80.3997L103.66 78.3244L103.814 78.7856C104.429 81.0146 104.813 85.0116 104.89 86.6257C106.197 84.7041 107.119 82.6288 107.581 80.6303C107.811 79.4773 107.119 78.2475 106.12 78.0169ZM112.884 52.8824C114.037 51.6526 113.807 50.269 113.73 49.8079C111.577 51.1145 110.425 51.8063 108.272 53.0361C109.195 53.2667 111.808 54.1122 112.884 52.8824ZM82.5998 52.8824C83.7527 54.1122 86.3661 53.3436 87.2116 53.0361C85.0594 51.8063 83.9064 51.1145 81.7543 49.8079C81.6774 50.269 81.5237 51.6526 82.5998 52.8824Z" fill="white"/>
<path d="M164.69 168.101H166.074V171.945H166.843V168.101H168.226V167.487H164.69V168.101Z" fill="#1A428A"/>
<path d="M171.071 170.945L169.841 167.487H168.765V171.945H169.533V168.486L170.763 171.945H171.378L172.608 168.486V171.945H173.376V167.487H172.3L171.071 170.945Z" fill="#1A428A"/>
<path d="M175.759 92.1599L173.299 90.9301C173.299 91.0069 173.914 104.535 167.381 116.526C171.147 99.1545 169.149 83.3974 167.458 75.8647C169.917 78.9393 173.069 84.3966 175.759 92.1599ZM161.539 89.9308C158.772 92.083 155.697 93.6203 155.697 93.6203C159.771 84.7809 162.154 71.3298 162.615 68.1783C161.232 65.4881 157.388 58.2629 150.01 49.1929C150.163 49.5773 150.317 49.9616 150.471 50.3459C153.007 56.5719 153.392 63.4896 151.547 69.9462C149.702 76.3259 145.859 84.4735 137.942 91.7756C137.942 91.7756 137.481 88.8547 136.405 86.3951C136.405 86.3951 134.252 91.3144 124.414 98.9239C124.106 99.1545 123.799 99.3851 123.491 99.6157C128.641 118.524 130.794 134.666 131.332 138.97C127.642 134.051 123.799 130.899 123.799 130.899C127.412 144.197 128.411 157.494 128.411 157.494C128.411 157.494 140.94 156.879 150.394 165.411C153.776 160.338 158.695 149.962 160.386 138.586L163.614 145.119C167.996 127.671 158.695 117.371 158.695 117.371C158.695 117.371 165.305 103.459 161.539 89.9308ZM93.6682 14.9116C95.8204 15.834 97.742 17.6018 97.742 17.6018C97.742 17.6018 99.6636 15.834 101.816 14.9116C102.277 14.681 103.276 14.6042 104.583 14.6042C106.966 14.6042 110.501 14.9885 114.806 15.834C112.5 14.5273 109.963 13.2975 107.196 12.1445L109.348 11.0684C103.891 9.06995 96.1279 8.60876 96.1279 8.60876C87.7497 9.608 80.217 12.6057 71.5314 18.2168C79.8327 15.6034 86.9811 14.6042 90.9011 14.6042C92.2078 14.5273 93.2071 14.681 93.6682 14.9116ZM55.6974 139.816C48.9334 141.583 45.782 147.425 45.782 147.425C37.4038 161.261 46.0126 165.642 49.3177 164.566C52.546 163.49 52.9303 156.956 54.237 153.728C55.5437 150.5 56.2355 149.885 59.3869 147.194C62.4615 144.504 64.0756 142.89 64.6905 141.199C65.2286 139.431 62.3846 138.048 55.6974 139.816ZM33.0226 122.982L31.2547 115.757C31.2547 115.757 33.9449 110.992 41.5545 103.766C41.5545 103.766 30.5629 107.071 24.875 116.833C24.875 116.833 26.7966 122.521 27.2578 125.98C27.1809 125.98 29.4868 123.136 33.0226 122.982ZM144.552 166.334C144.552 166.334 142.323 166.41 139.402 169.869C139.402 169.869 136.712 165.334 133.33 163.874C133.33 163.874 130.179 163.566 127.104 167.41C127.104 167.41 125.797 165.258 122.031 163.797C122.031 163.797 115.959 165.104 112.654 174.404C112.654 174.404 116.881 168.793 121.262 168.64C121.262 168.64 124.721 170.561 126.412 174.635C126.412 174.635 128.795 169.562 132.177 169.562C135.559 169.562 139.018 176.48 139.018 176.48C139.018 176.48 142.093 171.407 143.937 171.099C145.782 170.792 150.394 177.018 150.394 177.018C150.394 177.018 149.702 170.407 144.552 166.334ZM109.195 96.0799C108.887 99.9231 106.197 104.842 106.197 104.842C102.431 106.303 97.742 106.149 97.742 106.149C97.742 106.149 93.1302 106.303 89.287 104.842C89.287 104.842 86.5967 99.9231 86.2893 96.0799C86.2893 96.0799 84.8289 102.152 86.0587 106.764C86.0587 106.764 89.7482 109.454 97.742 109.454C105.736 109.454 109.425 106.764 109.425 106.764C110.655 102.152 109.195 96.0799 109.195 96.0799ZM144.168 49.6541C141.785 43.9662 138.019 36.4335 132.561 30.2844C132.561 30.2844 134.483 26.9793 137.558 24.289C140.709 21.5219 143.553 23.9816 143.553 23.9816C143.553 23.9816 143.092 19.216 138.787 18.4474C134.252 17.6787 127.412 23.9047 127.412 23.9047C126.797 23.751 125.259 23.2129 123.799 22.7517C117.727 21.0607 112.039 20.2921 108.042 19.9846C104.89 25.0577 98.2032 35.8186 89.825 49.8847C90.1325 50.1153 90.3631 50.269 90.6705 50.4996C92.8996 51.7294 95.6667 51.7294 97.4346 49.8847C97.6652 49.6541 97.8958 49.3467 97.8958 49.3467C97.8958 49.3467 98.0495 49.5773 98.2801 49.8078C100.048 51.7294 102.892 51.7294 105.121 50.4228C109.272 48.1168 113.499 45.8878 113.499 45.8878C113.499 45.8878 117.265 45.7341 120.186 47.4251C120.186 47.4251 118.803 48.3474 117.496 49.2698C117.496 49.2698 119.264 53.651 114.729 57.8017C115.421 60.2613 114.652 64.0277 114.268 65.565C112.192 61.4912 108.657 58.0323 104.045 55.8032C103.046 55.342 101.97 55.2652 100.893 55.6495C100.048 55.957 98.895 56.4181 97.8189 56.9562C96.7428 56.4181 95.5898 55.957 94.7443 55.6495C93.7451 55.2652 92.5921 55.342 91.5929 55.8032C86.6736 58.2629 82.8304 62.1061 80.832 66.6411V66.7179C80.832 74.8655 84.5983 82.1676 84.5983 82.1676C84.4446 78.4012 85.2132 76.0185 85.2132 76.0185C87.4423 74.558 91.8235 73.8663 93.8988 73.5588C94.5906 73.4819 95.1287 72.867 95.2055 72.0984C95.2055 71.7909 95.2055 71.4835 95.2055 71.0992C90.6705 68.6395 88.2109 65.4881 88.2109 65.4881C89.287 63.5665 90.44 61.7986 90.44 61.7986C93.822 60.7994 97.8189 60.8763 97.8189 60.8763C97.8189 60.8763 101.816 60.8763 105.198 61.7986C105.198 61.7986 106.351 63.4896 107.427 65.4881C107.427 65.4881 104.967 68.6395 100.432 71.0992C100.432 71.4835 100.432 71.7909 100.432 72.0984C100.432 72.867 100.97 73.4819 101.739 73.5588C103.891 73.8663 108.196 74.558 110.425 76.0185C110.425 76.0185 111.193 78.3244 111.039 82.1676C111.039 82.1676 114.345 75.7879 114.729 68.2552C118.649 77.3251 114.883 87.6249 114.883 87.6249C114.883 87.6249 117.957 86.7025 120.647 84.3198C120.647 84.3198 119.956 89.854 116.189 95.7725C125.797 90.7763 134.944 78.9393 136.943 66.1799C136.943 66.1799 139.71 71.4835 140.478 79.7079C140.478 79.7079 141.093 78.9393 142.016 77.5557C147.242 69.1007 147.934 58.7241 144.168 49.6541ZM64.6905 45.1191C64.6905 45.1191 74.606 28.5934 80.6782 20.6764C77.9111 21.1376 74.9903 21.7525 71.8389 22.598C70.3016 23.0592 68.7643 23.5972 68.1494 23.751C68.1494 23.751 61.2317 17.525 56.7735 18.2936C52.4692 19.0623 52.008 23.8278 52.008 23.8278C52.008 23.8278 54.8519 21.445 58.0034 24.1353C61.0779 26.8255 62.9995 30.1307 62.9995 30.1307C57.5422 36.3567 53.7758 43.8125 51.3931 49.5004C50.3938 51.8063 49.7789 54.266 49.3946 56.7256C52.0848 52.7287 58.772 42.967 64.6905 37.0484C64.6137 37.2022 64.5368 40.5073 64.6905 45.1191ZM97.742 96.8486C97.742 96.8486 100.432 95.9262 102.2 92.9285C102.2 92.9285 103.199 89.0085 100.432 85.1653C100.432 85.1653 99.6636 87.9324 97.742 90.5457C95.8204 87.8555 95.0518 85.1653 95.0518 85.1653C92.2847 89.0085 93.2839 92.9285 93.2839 92.9285C95.0518 95.9262 97.742 96.8486 97.742 96.8486ZM71.0702 98.9239C61.1548 91.3144 59.0795 86.3951 59.0795 86.3951C58.0034 88.8547 57.5422 91.7756 57.5422 91.7756C49.6252 84.3966 45.782 76.249 43.9373 69.8693C42.0925 63.4128 42.4768 56.495 45.0134 50.269C45.3208 49.5004 45.6283 48.8086 45.9357 48.1168C38.9411 56.2644 38.0956 66.5642 38.0956 66.6411C31.101 76.7102 30.1017 84.4735 30.1017 84.4735C30.1017 86.1645 30.1017 93.6972 32.0233 100.999C32.0233 100.999 34.483 85.7033 38.2493 80.0154C38.2493 80.0154 37.4807 89.7002 38.4799 99.3082C44.629 97.0023 50.0864 96.3105 51.2393 96.2337C53.0072 96.4643 62.9227 97.9247 75.2209 102.613C73.9911 101.384 72.6844 100.077 71.0702 98.9239Z" fill="#E04403"/>
</svg>
